HIERARCHY
ROOT Root
{
  OFFSET 3.9167 11.8871 -1.57486
  CHANNELS 6 Xposition Yposition Zposition Zrotation Xrotation Yrotation
  JOINT Spine
  {
    OFFSET 5.3114 0 0
    CHANNELS 3 Zrotation Xrotation Yrotation
    JOINT Spine1
    {
      OFFSET 2.79004 0 0
      CHANNELS 3 Zrotation Xrotation Yrotation
      JOINT Neck
      {
        OFFSET 1.43377 0 0
        CHANNELS 3 Zrotation Xrotation Yrotation
        JOINT Head
        {
          OFFSET 1.86043 0 0
          CHANNELS 3 Zrotation Xrotation Yrotation
          End Site
          {
            OFFSET 0 0 0
          }
        }
      }
      JOINT LeftArm
      {
        OFFSET 0.0387506 0 2.55754
        CHANNELS 3 Zrotation Xrotation Yrotation
        JOINT LeftForeArm
        {
          OFFSET 4.24845 0 0
          CHANNELS 3 Zrotation Xrotation Yrotation
          JOINT LeftHand
          {
            OFFSET 4.01008 0 0
            CHANNELS 3 Zrotation Xrotation Yrotation
            End Site
            {
              OFFSET 0 0 0
            }
          }
        }
      }
      JOINT RightArm
      {
        OFFSET 0.0387506 0 -2.55754
        CHANNELS 3 Zrotation Xrotation Yrotation
        JOINT RightForeArm
        {
          OFFSET -4.24845 0 0
          CHANNELS 3 Zrotation Xrotation Yrotation
          JOINT RightHand
          {
            OFFSET -4.01009 0 0
            CHANNELS 3 Zrotation Xrotation Yrotation
            End Site
            {
              OFFSET 0 0 0
            }
          }
        }
      }
    }
  }
  JOINT LeftUpLeg
  {
    OFFSET -1.23318 0 2.05692
    CHANNELS 3 Zrotation Xrotation Yrotation
    JOINT LeftLeg
    {
      OFFSET 5.46397 0 0
      CHANNELS 3 Zrotation Xrotation Yrotation
      JOINT LeftFoot
      {
        OFFSET 4.68898 0 0
        CHANNELS 3 Zrotation Xrotation Yrotation
        End Site
        {
          OFFSET 0 0 0
        }
      }
    }
  }
  JOINT RightUpLeg
  {
    OFFSET -1.24454 0 -2.05007
    CHANNELS 3 Zrotation Xrotation Yrotation
    JOINT RightLeg
    {
      OFFSET -5.46397 0 0
      CHANNELS 3 Zrotation Xrotation Yrotation
      JOINT RightFoot
      {
        OFFSET -4.68901 0 0
        CHANNELS 3 Zrotation Xrotation Yrotation
        End Site
        {
          OFFSET 0 0 0
        }
      }
    }
  }
}
MOTION
Frames:	10
Frame Time:	0.00833333
-6.23358 9.12245 -3.02716 170.32 -5.36797 24.0562 30.3824 -0.313435 1.36114 8.59324 -0.930789 0.199642 -60.2496 0.442201 -0.198908 16.5572 -2.63185 2.07759 -5.68802 -54.5327 -64.2077 58.2807 12.0511 31.4419 -5.51804 -47.7031 172.013 170.671 -45.5563 -86.0001 71.1671 18.92 36.2188 -1.46073 -16.2344 174.247 -125.896 2.23478 -155.811 -75.0842 0.187837 -2.34653 22.8161 -0.879171 174.634 55.5488 0.434289 -156.919 -65.0365 0.116497 -2.31849 -10.439 10.4263 177.197 
-6.23477 9.10198 -3.02301 170.343 -5.22489 24.1439 30.5185 -0.530539 1.32877 8.46172 -0.991807 0.076362 -60.5393 0.616241 -0.178179 16.7615 -2.2128 2.53968 -13.4998 -55.4438 -69.6248 57.239 11.5524 30.9896 -6.15375 -50.7799 171.532 170.413 -45.1205 -86.4213 71.3934 19.0497 36.2901 -1.45108 -16.1437 174.25 -126.147 2.35197 -155.8 -75.3648 0.201011 -2.35702 22.9058 -0.664348 174.57 55.2574 0.06537 -156.857 -65.441 0.123244 -2.33272 -10.3377 10.5774 177.208 
-6.23606 9.08071 -3.01822 170.37 -5.06655 24.241 30.6395 -0.794416 1.27405 8.31107 -1.0634 -0.0692279 -60.8418 0.749414 -0.091277 17.0702 -1.7807 2.98679 -22.0794 -56.0254 -75.5536 55.9107 10.913 30.4244 -6.9055 -53.9581 170.937 170.126 -44.7279 -86.914 71.5921 19.164 36.3517 -1.4339 -15.9802 174.255 -126.424 2.5004 -155.777 -75.6459 0.21568 -2.36774 22.993 -0.405313 174.492 54.9396 -0.301161 -156.771 -65.8511 0.1316 -2.34703 -10.2594 10.7213 177.22 
-6.23742 9.05869 -3.01293 170.407 -4.91008 24.3463 30.7541 -1.05109 1.20648 8.14736 -1.13065 -0.206546 -61.1239 0.883381 -0.0253014 17.3673 -1.37144 3.41712 -31.2093 -56.2904 -81.8308 54.3391 10.1822 29.7383 -7.78543 -57.1444 170.211 169.837 -44.3384 -87.3954 71.7588 19.2601 36.403 -1.41716 -15.8198 174.26 -126.73 2.6904 -155.713 -75.9303 0.232884 -2.37848 23.0548 -0.114571 174.404 54.6058 -0.656993 -156.682 -66.2597 0.140835 -2.36135 -10.2043 10.8583 177.235 
-6.23884 9.03598 -3.00729 170.463 -4.77244 24.4589 30.871 -1.24658 1.13549 7.97694 -1.17867 -0.305004 -61.3517 1.05981 -0.0673632 17.5378 -1.02085 3.82884 -40.686 -56.2746 -88.3221 52.5682 9.40981 28.9216 -8.8036 -60.246 169.34 169.571 -43.9148 -87.7851 71.889 19.3351 36.4432 -1.40875 -15.7382 174.262 -127.069 2.93203 -155.575 -76.2205 0.253667 -2.38907 23.0681 0.195383 174.31 54.2659 -0.994168 -156.612 -66.6595 0.150217 -2.37565 -10.1729 10.9893 177.252 
-6.23987 9.01206 -3.00138 170.546 -4.65765 24.5767 30.9888 -1.34854 1.07002 7.80243 -1.19686 -0.31962 -61.4964 1.33255 -0.304892 17.5146 -0.731373 4.23644 -50.5536 -55.9739 -95.1065 50.4796 8.54741 27.9154 -10.0153 -63.294 168.272 169.382 -43.4148 -87.9819 71.9859 19.3909 36.4733 -1.41237 -15.7714 174.262 -127.458 3.23216 -155.345 -76.5166 0.278994 -2.39943 23.0126 0.534123 174.208 53.9128 -1.31422 -156.572 -67.0577 0.159755 -2.39029 -10.1636 11.1184 177.273 
-6.24065 8.98708 -2.9951 170.648 -4.55673 24.701 31.1043 -1.39176 1.00287 7.62035 -1.1954 -0.278978 -61.5794 1.66509 -0.67012 17.3732 -0.486232 4.63591 -60.6924 -55.2578 -102.049 48.0728 7.57713 26.7492 -11.5047 -66.3147 166.924 169.234 -42.8716 -88.0627 72.0504 19.4282 36.4932 -1.42329 -15.8736 174.259 -127.893 3.58279 -155.043 -76.8175 0.308079 -2.40967 22.9057 0.903953 174.095 53.5437 -1.62039 -156.549 -67.4549 0.16977 -2.40518 -10.1769 11.244 177.298 
-6.24212 8.96209 -2.98838 170.759 -4.46743 24.8347 31.2241 -1.42287 0.919342 7.42796 -1.19047 -0.26284 -61.6441 1.96351 -1.0173 17.2138 -0.292347 4.99771 -70.6529 -54.0654 -108.696 45.5818 6.60213 25.5404 -13.321 -69.2075 165.243 169.029 -42.3615 -88.2084 72.0752 19.4426 36.5006 -1.43665 -15.9986 174.256 -128.345 3.97143 -154.695 -77.1239 0.33934 -2.41986 22.7812 1.2815 173.98 53.1756 -1.90741 -156.529 -67.8349 0.180002 -2.41955 -10.2158 11.3575 177.324 
-6.24518 8.93815 -2.98113 170.867 -4.38726 24.981 31.3549 -1.48852 0.804743 7.22254 -1.1983 -0.350967 -61.739 2.1341 -1.20051 17.1367 -0.156583 5.29227 -80.0385 -52.447 -114.637 43.2574 5.73534 24.4005 -15.4997 -71.8722 163.187 168.674 -41.9583 -88.5887 72.0524 19.4295 36.4933 -1.44757 -16.1 174.253 -128.789 4.38596 -154.326 -77.4366 0.37119 -2.43005 22.6724 1.64345 173.869 52.8258 -2.16987 -156.499 -68.1813 0.190192 -2.43264 -10.2829 11.4504 177.353 
-6.2503 8.91555 -2.97287 170.974 -4.32146 25.1384 31.4933 -1.51123 0.683197 6.95781 -1.19328 -0.497103 -61.8094 2.27028 -1.44419 17.1682 -0.131867 5.66325 -89.4815 -50.2726 -120.398 41.0709 4.99456 23.2837 -18.2235 -74.37 160.58 168.289 -41.5521 -89.1121 71.9802 19.3877 36.4713 -1.45649 -16.1821 174.251 -129.231 4.83283 -153.928 -77.7584 0.40384 -2.44022 22.5762 1.98514 173.765 52.5002 -2.40148 -156.46 -68.4858 0.200112 -2.44418 -10.3782 11.5135 177.383 
